<?xml version="1.0" encoding="UTF-8"?>
<svg xmlns="http://www.w3.org/2000/svg"
     viewBox="0 0 512 512"
     width="512"
     height="512">
  <rect x="0" y="0" width="512" height="512" fill="#000000"/>
  <rect x="48" y="48" width="416" height="416" fill="none" stroke="#FFFFFF" stroke-width="6"/>
  <path d="M143.66 295.24L143.66 295.24L163.88 295.24Q169.82 295.24 172.33 292.73Q174.83 290.23 174.83 284.29L174.83 284.29L174.83 227.71Q174.83 221.77 172.33 219.27Q169.82 216.76 163.88 216.76L163.88 216.76L143.66 216.76Q141.62 216.76 141.62 218.80L141.62 218.80L141.62 293.20Q141.62 295.24 143.66 295.24ZM118.06 311.75L118.06 311.75L118.06 200.25Q118.06 196.35 121.96 196.35L121.96 196.35L167.78 196.35Q182.25 196.35 190.32 204.24Q198.39 212.12 198.39 226.59L198.39 226.59L198.39 285.41Q198.39 299.88 190.32 307.76Q182.25 315.65 167.78 315.65L167.78 315.65L121.96 315.65Q118.06 315.65 118.06 311.75Z M240.32 315.65L240.32 315.65L224.55 315.65Q220.66 315.65 220.66 311.75L220.66 311.75L220.66 200.25Q220.66 196.35 224.55 196.35L224.55 196.35L268.71 196.35Q283.18 196.35 291.34 204.33Q299.51 212.31 299.51 226.78L299.51 226.78L299.51 241.25Q299.51 262.22 282.99 269.08L282.99 269.08L282.99 269.82L302.85 311.19Q304.52 315.65 299.69 315.65L299.69 315.65L284.66 315.65Q281.32 315.65 279.84 314.91Q278.36 314.16 277.43 311.75L277.43 311.75L258.88 271.68L246.45 271.68Q244.22 271.68 244.22 273.72L244.22 273.72L244.22 311.75Q244.22 315.65 240.32 315.65ZM246.26 252.75L246.26 252.75L264.44 252.75Q270.38 252.75 273.16 250.25Q275.94 247.74 275.94 242.18L275.94 242.18L275.94 227.71Q275.94 221.96 273.16 219.36Q270.38 216.76 264.44 216.76L264.44 216.76L246.26 216.76Q244.22 216.76 244.22 218.80L244.22 218.80L244.22 250.71Q244.22 252.75 246.26 252.75Z M365.93 315.65L365.93 315.65L350.16 315.65Q346.26 315.65 346.26 311.75L346.26 311.75L346.26 272.05L312.31 200.43Q311.57 198.76 312.40 197.56Q313.24 196.35 314.91 196.35L314.91 196.35L334.57 196.35Q337.54 196.35 339.02 200.25L339.02 200.25L357.58 245.33L358.88 245.33L377.06 200.25Q378.36 196.35 381.51 196.35L381.51 196.35L401.18 196.35Q403.03 196.35 403.87 197.47Q404.70 198.58 403.77 200.43L403.77 200.43L369.82 272.05L369.82 311.75Q369.82 315.65 365.93 315.65Z" fill="#FFFFFF"/>
</svg>